<?xml version="1.0" encoding="utf-8"?>
<!-- Generator: Adobe Illustrator 25.3.1, SVG Export Plug-In . SVG Version: 6.00 Build 0)  -->
<svg version="1.1" xmlns="http://www.w3.org/2000/svg" xmlns:xlink="http://www.w3.org/1999/xlink" x="0px" y="0px"
	 viewBox="0 0 50 50" style="enable-background:new 0 0 50 50;" xml:space="preserve">
<style type="text/css">
	.st0{display:none;}
	.st1{display:inline;}
	.st2{fill:#FFFFFF;}
	.st3{fill-rule:evenodd;clip-rule:evenodd;}
</style>
<g id="Layer_1" class="st0">
	<g id="Mp8dTX_1_" class="st1">
		<g>
			<path d="M4,23.96c0.36-0.73,1.03-1.2,1.6-1.73c1.52-1.41,3.16-2.66,4.9-3.78c2.32-1.49,4.76-2.72,7.39-3.59
				c2.3-0.76,4.65-1.18,7.07-1.19c2.01,0,3.99,0.27,5.92,0.82c2.1,0.59,4.11,1.42,6.04,2.45c2.26,1.21,4.37,2.66,6.34,4.3
				c0.82,0.69,1.59,1.44,2.36,2.18c0.16,0.15,0.25,0.36,0.37,0.55c0,0.13,0,0.27,0,0.4c-0.34,0.69-0.96,1.13-1.51,1.64
				c-1.56,1.46-3.26,2.75-5.06,3.91c-2.31,1.49-4.75,2.7-7.37,3.56c-2.29,0.75-4.63,1.17-7.04,1.18c-1.59,0.01-3.17-0.16-4.72-0.52
				c-2.01-0.46-3.94-1.15-5.81-2.03c-2.82-1.33-5.39-3.04-7.77-5.02C5.9,26.4,5.14,25.64,4.36,24.9C4.22,24.77,4.12,24.59,4,24.43
				C4,24.27,4,24.12,4,23.96z M25.03,16.16c-4.35-0.05-7.96,3.53-8.03,7.94c-0.06,4.38,3.55,8.03,7.97,8.06
				c4.37,0.03,7.99-3.56,8.03-7.97C33.04,19.82,29.45,16.21,25.03,16.16z M18.54,16.72c-2.69,0.42-10.41,5.17-12.17,7.44
				c1.83,2.32,9.44,7,12.17,7.45c-2.24-2.02-3.44-4.5-3.44-7.45C15.11,21.21,16.31,18.74,18.54,16.72z M31.52,31.6
				c4.62-1.55,8.57-4.17,12.14-7.42c-2.4-2.66-10.18-7.41-12.18-7.43c2.21,1.99,3.4,4.46,3.41,7.4
				C34.89,27.11,33.7,29.58,31.52,31.6z"/>
			<circle cx="25" cy="24.18" r="5.69"/>
			<g id="_x31_uNOrN.tif">
				<g>
					<path class="st2" d="M23.63,25.41c0.03,0.66,0.06,1.33,0.09,1.99c0.01,0.23-0.13,0.38-0.33,0.38c-0.2,0-0.34-0.15-0.33-0.38
						c0.04-1.02,0.09-2.04,0.13-3.06c0.01-0.3,0.02-0.6,0.04-0.9c0.01-0.17-0.05-0.3-0.16-0.42c-0.02-0.02-0.04-0.05-0.07-0.07
						c-0.29-0.26-0.47-0.58-0.44-0.98c0.03-0.47,0.17-0.9,0.51-1.24c0.21-0.21,0.43-0.21,0.63,0.01c0.42,0.45,0.58,0.99,0.46,1.6
						c-0.04,0.21-0.17,0.39-0.33,0.53c-0.23,0.2-0.31,0.43-0.29,0.74C23.59,24.21,23.6,24.81,23.63,25.41
						C23.63,25.41,23.63,25.41,23.63,25.41z"/>
					<path class="st2" d="M27.26,24.09c0,1.1,0,2.19,0,3.29c0,0.22-0.09,0.35-0.26,0.39c-0.22,0.05-0.41-0.11-0.4-0.35
						c0.03-0.45,0.07-0.9,0.1-1.35c0.05-0.6,0.09-1.19,0.13-1.79c0.01-0.08-0.01-0.18-0.06-0.24c-0.43-0.58-0.45-1.22-0.33-1.89
						c0.07-0.42,0.18-0.84,0.39-1.22c0.06-0.11,0.14-0.22,0.24-0.31c0.08-0.08,0.15-0.05,0.17,0.07c0.01,0.06,0.01,0.11,0.01,0.17
						C27.26,21.94,27.26,23.01,27.26,24.09z"/>
					<path class="st2" d="M25.07,25.43c0.03-0.64,0.05-1.27,0.08-1.91c0.01-0.18-0.04-0.33-0.17-0.45c-0.15-0.14-0.2-0.3-0.2-0.51
						c0.01-0.6,0-1.2,0-1.79c0-0.04-0.01-0.09,0.01-0.13c0.01-0.03,0.04-0.07,0.06-0.06c0.03,0.01,0.07,0.03,0.08,0.06
						c0.01,0.03,0.01,0.07,0.01,0.11c0,0.46,0,0.92,0,1.38c0,0.04-0.01,0.08,0,0.11c0.01,0.03,0.04,0.07,0.06,0.06
						c0.03-0.01,0.07-0.03,0.08-0.06c0.01-0.03,0.01-0.07,0.01-0.11c0-0.46,0-0.91,0-1.37c0-0.07-0.05-0.18,0.07-0.19
						c0.02,0,0.06,0.12,0.06,0.18c0.01,0.45,0,0.9,0,1.36c0,0.04-0.01,0.08,0,0.11c0.01,0.03,0.05,0.06,0.07,0.08
						c0.02-0.03,0.05-0.06,0.07-0.09c0.01-0.02,0-0.06,0-0.08c0-0.47,0-0.93,0-1.4c0-0.04,0-0.09,0.01-0.12
						c0.01-0.02,0.04-0.04,0.06-0.04c0.02,0,0.05,0.03,0.06,0.05c0.01,0.04,0.01,0.08,0.01,0.13c0,0.44,0,0.88,0,1.31
						c0,0.04-0.01,0.09,0,0.13c0.02,0.05,0.05,0.08,0.08,0.13c0.02-0.04,0.05-0.09,0.07-0.13c0.01-0.02,0-0.06,0-0.08
						c0-0.45,0-0.89,0-1.34c0-0.04,0-0.09,0.01-0.13c0.01-0.02,0.04-0.05,0.05-0.05c0.03,0,0.06,0.02,0.07,0.05
						c0.01,0.03,0.01,0.07,0.01,0.11c0,0.64,0,1.27,0,1.91c0,0.14-0.04,0.26-0.14,0.36c-0.2,0.18-0.24,0.39-0.23,0.65
						c0.06,1.25,0.12,2.49,0.17,3.74c0.01,0.2-0.08,0.33-0.24,0.37c-0.23,0.06-0.42-0.1-0.41-0.35c0.02-0.48,0.04-0.97,0.06-1.45
						C25.05,25.79,25.06,25.61,25.07,25.43C25.07,25.43,25.07,25.43,25.07,25.43z"/>
				</g>
			</g>
		</g>
	</g>
</g>
<g id="Layer_2">
	<path class="st3" d="M21.18,8c-4.04,0-7.82,1.81-10.35,4.99c-3.81,4.76-3.74,11.9,0.15,16.62c2.53,3.06,6.27,4.8,10.2,4.8
		c2.49,0,4.95-0.72,7.06-2.04l0.23-0.15l8.95,9.03c0.98,1.02,2.76,1.02,3.74,0c0.53-0.53,0.83-1.21,0.83-1.93s-0.26-1.36-0.76-1.89
		l-8.99-8.99l0.15-0.23c3.29-5.25,2.49-11.93-1.85-16.32C28.05,9.36,24.73,8,21.18,8 M27.82,27.87c-1.78,1.78-4.15,2.76-6.65,2.76
		c-2.53,0-4.87-0.98-6.65-2.76s-2.76-4.15-2.76-6.65c0-2.53,0.98-4.87,2.76-6.65s4.15-2.76,6.65-2.76c2.53,0,4.87,0.98,6.65,2.76
		c1.78,1.78,2.76,4.15,2.76,6.65S29.6,26.09,27.82,27.87"/>
</g>
</svg>
